<svg xmlns="http://www.w3.org/2000/svg" enable-background="new 0 0 512 512" viewBox="0 0 512 512" id="business-news"><path fill="#d3d8d9" d="M476.401,125.29c7.303,0,13.223,5.92,13.223,13.223v326.811c0,21.976-16.596,41.185-38.495,42.568c-24.051,1.613-44.104-17.442-44.104-41.185V125.29H476.401z"></path><path fill="#a8b1b3" d="M489.619,437.097v28.24c0,21.96-16.6,41.16-38.479,42.56c-24.08,1.6-44.12-17.44-44.12-41.2v-28.24c0,23.76,20.04,42.8,44.12,41.2C473.02,478.256,489.619,459.057,489.619,437.097z"></path><path fill="#e6e8e8" d="M489.619,138.491v28.24c0-7.28-5.92-13.2-13.2-13.2H407.02v-28.24h69.399C483.7,125.29,489.619,131.211,489.619,138.491z"></path><path fill="#a8b1b3" d="M461.556,110.098v356.592c0,7.303-5.92,13.223-13.223,13.223l0,0c-7.303,0-13.223-5.92-13.223-13.223V96.875h13.223C455.636,96.875,461.556,102.795,461.556,110.098z"></path><path fill="#7c8b8d" d="M461.539,438.457v28.24c0,7.28-5.92,13.2-13.2,13.2c-3.68,0-6.96-1.48-9.359-3.88c-2.4-2.36-3.881-5.68-3.881-9.32v-28.24c0,3.64,1.48,6.96,3.881,9.32c2.399,2.4,5.68,3.88,9.359,3.88C455.62,451.657,461.539,445.737,461.539,438.457z"></path><path fill="#d3d8d9" d="M461.539,110.115v28.24c0-7.32-5.92-13.24-13.2-13.24h-13.24v-28.24h13.24C455.62,96.875,461.539,102.794,461.539,110.115z"></path><path fill="#d3d8d9" d="M435.11,72.3v344.843h-28.085V59.053h14.885C429.212,59.053,435.11,64.998,435.11,72.3z"></path><path fill="#e6e8e8" d="M435.099,72.293v28.24c0-7.28-5.879-13.24-13.199-13.24h-14.88v-28.24h14.88C429.22,59.053,435.099,64.973,435.099,72.293z"></path><path fill="#fff" d="M35.602,3.999c-7.303,0-13.224,5.92-13.224,13.223v460.911c0,16.484,13.439,29.866,29.865,29.866h396.083c-22.801,0-41.294-18.495-41.294-41.238V17.222c0.001-7.303-5.92-13.223-13.223-13.223H35.602z"></path><path fill="#fb8a8a" d="M367.039,43.983c0,0,0,41.84,0,97.56H62.36v-97.56C62.36,43.983,367.039,43.983,367.039,43.983z"></path><path fill="#fcb1b1" d="M367.059,43.976c0,0,0,7.96,0,21.52H62.379v-21.52H367.059z"></path><rect width="304.681" height="21.48" x="62.379" y="120.056" fill="#f96363"></rect><path fill="#333" d="M367.041,145.543H62.361c-2.211,0-4-1.789-4-4V43.984c0-2.211,1.789-4,4-4h304.68c2.211,0,4,1.789,4,4v97.558C371.041,143.754,369.252,145.543,367.041,145.543z M66.361,137.543h296.68V47.984H66.361V137.543z"></path><path fill="#e6e8e8" d="M448.357,507.952H52.196c-16.336,0-29.818-13.34-29.818-29.816v-31.455c0,16.43,13.481,29.816,29.818,29.816h355.998C412.594,494.566,428.931,507.952,448.357,507.952z"></path><path fill="#333" d="M476.401,121.289h-10.844v-11.191c0-9.496-7.727-17.223-17.223-17.223h-9.227V72.3c0-9.508-7.715-17.246-17.199-17.246h-10.875V17.223C411.033,7.727,403.306,0,393.81,0H35.603c-9.5,0-17.226,7.727-17.226,17.223v460.91c0,18.676,15.191,33.867,33.867,33.867h396.083c0.031,0,0.057-0.017,0.088-0.018c0.984-0.004,1.972-0.033,2.967-0.1c23.687-1.496,42.242-21.945,42.242-46.558V138.512C493.623,129.016,485.897,121.289,476.401,121.289z M439.108,100.875h9.227c5.086,0,9.223,4.137,9.223,9.223v356.593c0,5.086-4.137,9.223-9.223,9.223c-5.086,0-9.227-4.137-9.227-9.223V100.875z M52.244,504c-14.262,0-25.867-11.605-25.867-25.867V17.223c0-5.086,4.141-9.223,9.227-9.223h358.206c5.086,0,9.223,4.137,9.223,9.223v449.539c0,15.422,7.77,29.07,19.601,37.238H52.244z M485.623,465.324c0,20.398-15.262,37.344-34.765,38.574c-2.424,0.164-4.798,0.013-7.14-0.278v0.064c-18.391-2.278-32.684-17.949-32.684-36.923V63.054h10.875c5.074,0,9.199,4.148,9.199,9.246v394.391c0,9.496,7.727,17.223,17.227,17.223c9.496,0,17.223-7.727,17.223-17.223V129.289h10.843c5.086,0,9.223,4.137,9.223,9.223L485.623,465.324L485.623,465.324z"></path><path fill="#333" d="M367.033 185.559H62.377c-2.211 0-4-1.789-4-4 0-2.211 1.789-4 4-4h304.656c2.211 0 4 1.789 4 4C371.033 183.77 369.244 185.559 367.033 185.559zM367.033 471.953H62.377c-2.211 0-4-1.789-4-4 0-2.211 1.789-4 4-4h304.656c2.211 0 4 1.789 4 4C371.033 470.164 369.244 471.953 367.033 471.953zM367.033 431.953H62.377c-2.211 0-4-1.789-4-4s1.789-4 4-4h304.656c2.211 0 4 1.789 4 4S369.244 431.953 367.033 431.953zM367.033 391.942h-142.52c-2.211 0-4-1.789-4-4s1.789-4 4-4h142.52c2.211 0 4 1.789 4 4C371.033 390.153 369.244 391.942 367.033 391.942zM367.033 350.343h-142.52c-2.211 0-4-1.789-4-4 0-2.211 1.789-4 4-4h142.52c2.211 0 4 1.789 4 4C371.033 348.554 369.244 350.343 367.033 350.343zM367.033 308.742h-142.52c-2.211 0-4-1.789-4-4 0-2.211 1.789-4 4-4h142.52c2.211 0 4 1.789 4 4C371.033 306.953 369.244 308.742 367.033 308.742zM367.033 267.145h-142.52c-2.211 0-4-1.789-4-4s1.789-4 4-4h142.52c2.211 0 4 1.789 4 4S369.244 267.145 367.033 267.145zM367.033 225.543h-142.52c-2.211 0-4-1.789-4-4 0-2.211 1.789-4 4-4h142.52c2.211 0 4 1.789 4 4C371.033 223.754 369.244 225.543 367.033 225.543z"></path><rect width="122.155" height="166.4" x="62.36" y="221.543" fill="#fddd8d"></rect><rect width="122.12" height="25.92" x="62.379" y="221.537" fill="#fee8b3"></rect><rect width="122.12" height="25.92" x="62.379" y="362.016" fill="#fdd267"></rect><path fill="#333" d="M184.514,391.942H62.361c-2.211,0-4-1.789-4-4V221.543c0-2.211,1.789-4,4-4h122.152c2.211,0,4,1.789,4,4v166.399C188.514,390.153,186.725,391.942,184.514,391.942z M66.361,383.941h114.152V225.543H66.361V383.941z"></path></svg>