<svg xmlns="http://www.w3.org/2000/svg" enable-background="new 0 0 32 32" viewBox="0 0 32 32" id="registered-document"><path fill="#fff" d="M25.5,7.5V17v12.4c0,1.1-0.9,2-2,2h-19c-1.1,0-2-0.9-2-2v-27c0-1.1,0.9-2,2-2h14L25.5,7.5z"></path><path fill="#8b8891" d="M22.5,16.9v-5.4c0-0.6-0.4-1-1-1h-15c-0.6,0-1,0.4-1,1v7c0,0.6,0.4,1,1,1h15c0.6,0,1-0.4,1-1V16.9z"></path><polygon fill="#e23342" points="25.5 27.1 25.5 31.5 23.5 30.5 21.5 31.5 21.5 27.1"></polygon><path fill="#fdd331" d="M28.4 24.1c-.2.5.1 1.4-.2 1.8s-1.2.4-1.7.8c-.4.3-.6 1-1 1.3-.1 0-.1.1-.2.1-.5.2-1.2-.4-1.8-.4-.4 0-.7.2-1.1.3-.2.1-.5.1-.7.1-.1 0-.1-.1-.2-.1-.4-.3-.6-1-1-1.3-.5-.3-1.3-.3-1.7-.8s0-1.3-.2-1.8c-.1-.2-.2-.4-.4-.6h2.5c.4 1.1 1.3 1.8 2.4 2 .1 0 .3 0 .4 0 1.3 0 2.4-.8 2.8-2h2.5C28.6 23.7 28.5 23.9 28.4 24.1zM28.8 21.5h-2.5c-.3-.8-.8-1.4-1.6-1.7-.4-.2-.8-.3-1.2-.3-1.3 0-2.4.8-2.8 2h-2.5c.2-.2.3-.4.4-.6.1-.5.1-1 .1-1.5 0-.1.1-.3.1-.4.3-.4.8-.4 1.3-.5 0 0 0 0 0 0 .1 0 .3-.1.4-.2.1-.1.1-.1.2-.2.4-.4.6-1 1-1.2.2-.1.5 0 .7 0 .4.2.7.3 1.1.3.6 0 1.3-.5 1.8-.4.1 0 .1.1.2.1.4.3.6 1 1 1.3.5.3 1.3.3 1.7.8s0 1.3.2 1.8C28.5 21.1 28.6 21.3 28.8 21.5z"></path><path fill="#8b8891" d="M20.5,3.5h-14c-0.6,0-1,0.4-1,1v2c0,0.6,0.4,1,1,1h14V3.5z"></path><path fill="#e23342" d="M29.5,22.5c0,0.6-0.4,1-1,1h-10c-0.6,0-1-0.4-1-1s0.4-1,1-1h10C29.1,21.5,29.5,21.9,29.5,22.5z"></path><path fill="#dad9db" d="M25.5,7.5h-5c-1.1,0-2-0.9-2-2v-5L25.5,7.5z"></path><path d="M17.5,28h-12C5.2,28,5,28.2,5,28.5S5.2,29,5.5,29h12c0.3,0,0.5-0.2,0.5-0.5S17.8,28,17.5,28z M29.2,21.2
	C29,21,29,20.9,28.9,20.7c0-0.2-0.1-0.4,0-0.6c0.1-0.5,0-0.9-0.2-1.3c-0.3-0.3-0.7-0.6-1.2-0.6c-0.2,0-0.4-0.1-0.6-0.2
	c-0.1-0.1-0.3-0.3-0.4-0.5c-0.1-0.2-0.3-0.4-0.5-0.6V7.5c0,0,0,0,0-0.1c0,0,0,0,0-0.1c0-0.1-0.1-0.2-0.1-0.2l-7-7
	C18.8,0.1,18.7,0,18.6,0c0,0,0,0-0.1,0c0,0,0,0-0.1,0h-14C3.1,0,2,1.1,2,2.5v27C2,30.9,3.1,32,4.5,32h16.9c0,0,0,0,0,0
	c0.1,0,0.2,0,0.3,0l1.8-0.9l1.8,0.9c0.2,0.1,0.5,0,0.7-0.2c0-0.1,0.1-0.1,0.1-0.2v-3.3c0.2-0.2,0.3-0.4,0.5-0.6
	c0.1-0.2,0.2-0.3,0.4-0.5c0.2-0.1,0.4-0.2,0.6-0.2c0.5-0.1,0.9-0.3,1.2-0.6c0.2-0.4,0.3-0.9,0.2-1.3c0-0.2,0-0.4,0-0.7
	c0.1-0.1,0.2-0.3,0.3-0.4c0.7-0.4,1.1-1.2,0.7-2C29.7,21.5,29.5,21.3,29.2,21.2L29.2,21.2z M25.1,17.4c0.2,0,0.3,0.3,0.5,0.5
	c0.2,0.3,0.4,0.5,0.6,0.8c0.3,0.2,0.6,0.3,0.9,0.4c0.2,0,0.5,0.1,0.6,0.3c0.1,0.2,0.1,0.5,0.1,0.7c0,0.3,0,0.6,0.1,0.9h-1.3
	c-0.8-1.7-2.9-2.5-4.6-1.7c-0.7,0.3-1.3,0.9-1.7,1.7h-1.3c0.1-0.3,0.1-0.6,0.1-0.9c0-0.2,0-0.5,0.1-0.7c0.2-0.1,0.4-0.2,0.6-0.3
	c0.3-0.1,0.6-0.2,0.9-0.4c0.3-0.2,0.5-0.5,0.6-0.8c0.1-0.2,0.3-0.5,0.5-0.5c0.2,0,0.5,0.1,0.7,0.2c0.3,0.1,0.6,0.2,1,0.2
	c0.3,0,0.7-0.1,1-0.2C24.7,17.5,24.9,17.4,25.1,17.4z M25.5,21h-4c0.8-1.1,2.4-1.3,3.5-0.5C25.2,20.6,25.4,20.8,25.5,21z M18.4,18.8
	c0,0.1-0.1,0.1-0.1,0.2H6.5C6.2,19,6,18.8,6,18.5v-7C6,11.2,6.2,11,6.5,11h15c0.3,0,0.5,0.2,0.5,0.5v4.9c-0.2,0-0.3,0-0.5,0
	c-0.4,0.2-0.8,0.5-1,1c-0.1,0.2-0.2,0.3-0.4,0.5c-0.2,0.1-0.4,0.2-0.6,0.2C19.1,18.2,18.7,18.4,18.4,18.8L18.4,18.8z M19,1.7L24.3,7
	h-3.8C19.7,7,19,6.3,19,5.5V1.7z M18.5,7h-12C6.2,7,6,6.8,6,6.5v-2C6,4.2,6.2,4,6.5,4H18v1.5C18,6,18.2,6.6,18.5,7z M21,31H4.5
	C3.7,31,3,30.3,3,29.5v-27C3,1.7,3.7,1,4.5,1H18v2H6.5C5.7,3,5,3.7,5,4.5v2C5,7.3,5.7,8,6.5,8H25v8.4c-0.3,0-0.6,0.1-0.9,0.2
	c-0.2,0.1-0.4,0.2-0.6,0.2c-0.2,0-0.3-0.1-0.5-0.1v-5.2c0-0.8-0.7-1.5-1.5-1.5h-15C5.7,10,5,10.7,5,11.5v7C5,19.3,5.7,20,6.5,20
	h11.6c0,0,0,0.1,0,0.1c0,0.2,0,0.4,0,0.7c-0.1,0.1-0.2,0.3-0.3,0.4c-0.7,0.4-1.1,1.2-0.7,2c0.1,0.3,0.4,0.5,0.7,0.7
	c0.1,0.1,0.2,0.3,0.3,0.4c0,0.2,0.1,0.4,0,0.6c-0.1,0.5,0,0.9,0.2,1.3c0.3,0.3,0.7,0.6,1.2,0.6c0.2,0,0.4,0.1,0.6,0.2
	c0.1,0.1,0.3,0.3,0.4,0.5c0.1,0.2,0.3,0.4,0.5,0.6L21,31z M25,30.7l-1.3-0.6c-0.1-0.1-0.3-0.1-0.4,0L22,30.7v-2.1
	c0.3,0,0.6-0.1,0.9-0.2c0.2-0.1,0.4-0.2,0.6-0.2c0.2,0,0.4,0.1,0.6,0.2c0.3,0.1,0.6,0.2,0.9,0.2V30.7z M27.9,24.9
	c0,0.2,0,0.5-0.1,0.7c-0.2,0.1-0.4,0.2-0.6,0.3c-0.3,0.1-0.6,0.2-0.9,0.4c-0.3,0.2-0.5,0.5-0.6,0.8c-0.1,0.2-0.3,0.5-0.5,0.5
	c-0.2,0-0.5-0.1-0.7-0.2c-0.3-0.1-0.6-0.2-1-0.2c-0.3,0-0.7,0.1-1,0.2c-0.2,0.1-0.4,0.2-0.7,0.2c-0.2,0-0.3-0.3-0.5-0.5
	c-0.2-0.3-0.4-0.5-0.6-0.8c-0.3-0.2-0.6-0.3-0.9-0.4c-0.2,0-0.5-0.1-0.6-0.3c-0.1-0.2-0.1-0.5-0.1-0.7c0-0.3,0-0.6-0.1-0.9h1.3
	c0.8,1.7,2.9,2.5,4.6,1.7c0.7-0.3,1.3-0.9,1.7-1.7h1.3C27.9,24.3,27.8,24.6,27.9,24.9z M21.5,24h4c-0.8,1.1-2.4,1.3-3.5,0.5
	C21.8,24.4,21.6,24.2,21.5,24z M28.5,23h-10c-0.3,0-0.5-0.2-0.5-0.5s0.2-0.5,0.5-0.5h10c0.3,0,0.5,0.2,0.5,0.5S28.8,23,28.5,23z
	 M5.5,26h10c0.3,0,0.5-0.2,0.5-0.5S15.8,25,15.5,25h-10C5.2,25,5,25.2,5,25.5S5.2,26,5.5,26z M5.5,23h9c0.3,0,0.5-0.2,0.5-0.5
	S14.8,22,14.5,22h-9C5.2,22,5,22.2,5,22.5S5.2,23,5.5,23z"></path></svg>