<svg xmlns="http://www.w3.org/2000/svg" viewBox="0 0 24 24" id="google-my-maps"><g data-name="Layer 2"><g data-name="Layer 3"><path fill="none" d="M0 0h24v24H0z"></path><path fill="#f74f4f" d="M1 12C1 4 4 1 12 1s11 3 11 11-3 11-11 11S1 20 1 12"></path><path fill="#fff" d="M15.84 9.33a3.84 3.84 0 0 0-7.68 0 1.34 1.34 0 0 0 0 .2c.12 2.84 2.69 4.18 3.56 8.73a.28.28 0 0 0 .54 0c.87-4.55 3.44-5.89 3.56-8.73a1.34 1.34 0 0 0 .02-.2Z"></path><path fill="#d13131" d="M12 7.54a1.79 1.79 0 1 1-1.8 1.79A1.8 1.8 0 0 1 12 7.54Z"></path></g></g></svg>