<svg xmlns="http://www.w3.org/2000/svg" viewBox="0 0 64 64" id="megaphone"><g data-name="Layer 25"><path fill="#ffc987" fill-rule="evenodd" d="M25.63 22.87v13H11.35a6.53 6.53 0 0 1-6.51-6.51 6.53 6.53 0 0 1 6.51-6.51Z"></path><path d="M26.47 22.87v13a.84.84 0 0 1-.84.84H11.35a7.35 7.35 0 0 1 0-14.69h14.28a.83.83 0 0 1 .84.83ZM24.8 35.05V23.71H11.35a5.67 5.67 0 0 0 0 11.34Z"></path><path fill="#ffaf10" fill-rule="evenodd" d="M39 44.19C35.86 42.4 25.63 36.74 25.63 36V22.78c0-.76 10.23-6.42 13.41-8.21Z"></path><path d="m38.59 44.89-.92-.51c-4-2.26-12.87-7.21-12.87-8.4v-13.2c0-1.19 8.84-6.14 12.87-8.4l1-.54a.84.84 0 0 1 1.14.32.79.79 0 0 1 .11.41v29.62A.84.84 0 0 1 39 45a.8.8 0 0 1-.45-.14ZM26.47 36c0 .2 7.85 4.6 11.74 6.78V16c-3.89 2.18-11.74 6.58-11.74 6.78V36Z"></path><path fill="#fe3745" fill-rule="evenodd" d="M44 12.38v34a2.5 2.5 0 0 1-2.49 2.49A2.5 2.5 0 0 1 39 46.38v-34a2.5 2.5 0 0 1 2.49-2.49A2.5 2.5 0 0 1 44 12.38Z"></path><path d="M44.85 12.38v34a3.32 3.32 0 1 1-6.64 0v-34a3.32 3.32 0 1 1 6.64 0Zm-1.67 34v-34a1.67 1.67 0 0 0-1.65-1.65 1.62 1.62 0 0 0-1.16.49 1.64 1.64 0 0 0-.49 1.16v34A1.67 1.67 0 0 0 41.53 48a1.64 1.64 0 0 0 1.16-.49 1.62 1.62 0 0 0 .49-1.16Z"></path><path fill="#ffaf10" fill-rule="evenodd" d="M47.52 29.38a3.06 3.06 0 0 1-3.06 3.06 3.15 3.15 0 0 1-.44 0v-6.09a3.15 3.15 0 0 1 .44 0 3.06 3.06 0 0 1 3.06 3.06Z"></path><path d="M48.36 29.38a3.91 3.91 0 0 1-3.9 3.9h-.56a.84.84 0 0 1-.72-.83v-6.1a.83.83 0 0 1 .77-.83h.51a3.91 3.91 0 0 1 3.89 3.9zM46 31a2.21 2.21 0 0 0 .65-1.57 2.22 2.22 0 0 0-.65-1.62 2.29 2.29 0 0 0-1.18-.62v4.38A2.29 2.29 0 0 0 46 31zm13.16-2.46a.84.84 0 1 1 0 1.68h-6.67a.84.84 0 0 1 0-1.68zm-5.06-8.92a.84.84 0 1 1 0 1.67h-6.67a.84.84 0 1 1 0-1.67zm0 17.85a.84.84 0 0 1 .84.84.83.83 0 0 1-.84.83h-6.67a.84.84 0 0 1 0-1.67z"></path><path fill="#1e99d6" fill-rule="evenodd" d="M11.35 36.27h7.19v15.57a2.28 2.28 0 0 1-2.27 2.27h-2.66a2.28 2.28 0 0 1-2.26-2.27Z"></path><path d="M11.35 35.43h7.19a.85.85 0 0 1 .84.84v15.57a3.1 3.1 0 0 1-.91 2.16 3.07 3.07 0 0 1-2.2.91h-2.66a3.06 3.06 0 0 1-2.19-.91 3.1 3.1 0 0 1-.91-2.19V36.27a.84.84 0 0 1 .84-.84Zm6.35 1.68h-5.52v14.73a1.44 1.44 0 0 0 .43 1 1.39 1.39 0 0 0 1 .42h2.66a1.43 1.43 0 0 0 1.43-1.43Z"></path></g></svg>