<svg xmlns="http://www.w3.org/2000/svg" width="48" height="48" id="court"><g transform="translate(0 -1004.362)"><circle cx="24" cy="1028.362" r="24" fill="#ffa40b" fill-rule="evenodd"></circle><path style="isolation:auto;mix-blend-mode:normal" fill="#ff7712" d="M24.5 8 9 14v2l1 1v1l2 2v15h-2v2H9v2l7.934 7.934A24 24 0 0 0 24 48a24 24 0 0 0 24-24 24 24 0 0 0-.111-2.111L40 14 24.5 8z" color="#000" transform="translate(0 1004.362)"></path><path style="isolation:auto;mix-blend-mode:normal" fill="#fff" d="m24.5 1012.362-15.5 6v2h1v2h2v17h-2v2H9v2h31v-2h-1v-2h-2v-17h2v-2h1v-2l-15.5-6zm-10.5 10h3v17h-3v-17zm5 0h11v17H19v-17zm13 0h3v17h-3v-17z" color="#000" overflow="visible"></path></g></svg>