<svg xmlns="http://www.w3.org/2000/svg" data-name="Layer 1" viewBox="0 0 512 512" id="policies"><path fill="#ededed" d="M390.5,7.5h-269a29.9982,29.9982,0,0,0-30,30V450.21l-15,54.29h314a30.00461,30.00461,0,0,0,30-30V37.5A30.00461,30.00461,0,0,0,390.5,7.5Z"></path><path fill="#e1e1e3" d="M390.5,7.5h-45a30.00461,30.00461,0,0,1,30,30v437a30.00461,30.00461,0,0,1-30,30h45a30.00461,30.00461,0,0,0,30-30V37.5A30.00461,30.00461,0,0,0,390.5,7.5Z"></path><path fill="#c8c5cc" d="M389 504.5H73.5a29.9982 29.9982 0 0 1-30-30v-40h313l1 2V473A31.49625 31.49625 0 0 0 389 504.5zM391.5 504.5H389c.83008 0 1.64014-.03027 2.45-.08984z"></path><path fill="#dadadc" d="M420.5,154.1001v63.64013L285.38007,352.86a26.33284,26.33284,0,0,1-37.24018,0l-13.19995-13.19984Z"></path><path fill="#eb304a" d="M500.10986,123.12988,266.76,356.48l-31.82007-31.81982L468.29,91.31006a14.99247,14.99247,0,0,1,21.21,0l10.60986,10.60986A15.01016,15.01016,0,0,1,500.10986,123.12988Z"></path><path fill="#e4222e" d="M500.10986,101.91992,489.5,91.31006a14.989,14.989,0,0,0-18.10693-2.36768A14.97554,14.97554,0,0,1,474.5,91.31006l10.60986,10.60986a15.01016,15.01016,0,0,1,0,21.21L259.26,348.98l7.5,7.5,233.34985-233.3501A15.01016,15.01016,0,0,0,500.10986,101.91992Z"></path><polygon fill="#fdd8ae" points="266.76 356.48 219.03 372.39 234.94 324.66 266.76 356.48"></polygon><polygon fill="#fbbf7d" points="258.802 348.522 223.009 360.453 219.03 372.39 266.76 356.48 258.802 348.522"></polygon><path fill="#fddd5a" d="M500.10986,123.12988,477.24,146l-31.82007-31.81982L468.29,91.31006a14.99247,14.99247,0,0,1,21.21,0l10.60986,10.60986A15.01016,15.01016,0,0,1,500.10986,123.12988Z"></path><path fill="#fed030" d="M500.10986,101.91992,489.5,91.31006a14.989,14.989,0,0,0-18.10693-2.36768A14.97554,14.97554,0,0,1,474.5,91.31006l10.60986,10.60986a15.01016,15.01016,0,0,1,0,21.21L469.74,138.5l7.5,7.5,22.86987-22.87012A15.01016,15.01016,0,0,0,500.10986,101.91992Z"></path><path fill="#3c3b41" d="M160.5,80.00019h191a7.5,7.5,0,0,0,0-15h-191a7.5,7.5,0,0,0,0,15Zm0,90h191a7.5,7.5,0,0,0,0-15h-191a7.5,7.5,0,0,0,0,15Zm0-45h191a7.5,7.5,0,0,0,0-15h-191a7.5,7.5,0,0,0,0,15ZM505.41016,96.61347,494.80371,86.007a22.50121,22.50121,0,0,0-31.82031,0L428,120.99043V37.50019a37.54226,37.54226,0,0,0-37.5-37.5h-269a37.54227,37.54227,0,0,0-37.5,37.5v389.5H43.49512a7.49943,7.49943,0,0,0-7.5,7.5v40a37.54225,37.54225,0,0,0,37.5,37.5h318a7.59958,7.59958,0,0,0,.81421-.0459A37.54473,37.54473,0,0,0,428,474.50019V205.84492l77.41016-77.41016A22.52781,22.52781,0,0,0,505.41016,96.61347ZM73.49512,497.00019a22.52586,22.52586,0,0,1-22.5-22.5v-32.5h299v31a38.79572,38.79572,0,0,0,8.293,24ZM413,434.40351c-.00049.03272-.00488.064-.00488.09668v38.5a24,24,0,0,1-48,0v-38.5a7.49943,7.49943,0,0,0-7.5-7.5c-.16895,0-.334.01416-.5.02539-.166-.01123-.33106-.02539-.5-.02539H99v-389.5a22.52586,22.52586,0,0,1,22.5-22.5h269a22.52586,22.52586,0,0,1,22.5,22.5v98.49024L273.99024,275.00019H160.5a7.5,7.5,0,0,0,0,15h98.49024L229.6377,319.35273a7.53354,7.53354,0,0,0-.55127.61963l-.02051.02783H160.5a7.5,7.5,0,0,0,0,15h63.0874l-10,30H160.5a7.5,7.5,0,0,0,0,15h56a7.51907,7.51907,0,0,0,1.61133-.17773,7.26416,7.26416,0,0,0,3.292-.32129L269.13379,363.591c.04858-.01611.094-.03955.14233-.05664.18311-.06543.36377-.13672.54248-.2168.07667-.03418.15259-.06884.228-.106.17432-.08448.34473-.17823.51343-.27735.07056-.0415.1416-.08056.21094-.12451.17065-.1084.33618-.22656.49951-.3501.05835-.04394.11963-.084.17676-.12988a7.54521,7.54521,0,0,0,.61816-.55029l26.7793-26.7793H351.5a7.5,7.5,0,0,0,0-15H313.84473L413,220.84492Zm-174.781-95.8623,14.65747,14.65722-21.98682,7.3291Zm28.54272,7.32714-21.21289-21.21191L425.78735,144.41767l.03077-.03027,19.6018-19.60205,21.21192,21.21289Zm228.041-228.041-17.56348,17.56348-21.21191-21.21289,17.56347-17.56348a7.49726,7.49726,0,0,1,10.60547,0l10.60645,10.60644A7.50731,7.50731,0,0,1,494.80274,117.82734Z"></path></svg>