<svg xmlns="http://www.w3.org/2000/svg" enable-background="new 0 0 64 64" viewBox="0 0 64 64" id="compose"><circle cx="32" cy="32" r="32" fill="#223551"></circle><path fill="#ecb521" d="M42.14,11.5h-21.9c-0.06,0-0.12,0.01-0.18,0.02c-0.01,0.01-0.02,0.01-0.04,0.01c-0.04,0.01-0.09,0.02-0.13,0.04c-0.01,0-0.01,0.01-0.02,0.01c-0.1,0.05-0.2,0.11-0.28,0.19l-7.41,7.41c-0.03,0.03-0.06,0.07-0.09,0.11c-0.01,0.01-0.01,0.02-0.02,0.02c-0.03,0.04-0.05,0.09-0.07,0.13c-0.01,0.01-0.01,0.02-0.02,0.02c-0.02,0.04-0.03,0.09-0.04,0.13c0,0.01-0.01,0.02-0.01,0.04c-0.01,0.06-0.02,0.12-0.02,0.18v31.75c0,0.51,0.42,0.92,0.92,0.92h29.31c0.5,0,0.92-0.41,0.92-0.92V12.42C43.05,11.91,42.64,11.5,42.14,11.5z M41.22,50.66H13.75V20.75h6.49c0.51,0,0.92-0.42,0.92-0.92v-6.49h20.06V50.66z"></path><path fill="#fff" d="M32.1 46.56H17.73c-.4 0-.73.33-.73.73 0 .41.33.73.73.73H32.1c.41 0 .73-.33.73-.73C32.84 46.89 32.51 46.56 32.1 46.56zM37.23 42.14H17.74c-.41 0-.73.33-.73.73 0 .4.33.73.73.73h19.49c.41 0 .73-.33.73-.73C37.96 42.47 37.63 42.14 37.23 42.14zM37.23 37.72H17.74c-.41 0-.73.33-.73.73 0 .4.33.73.73.73h19.49c.41 0 .73-.33.73-.73C37.96 38.05 37.63 37.72 37.23 37.72zM17.74 33.31c-.41 0-.73.33-.73.73 0 .4.33.73.73.73h19.49c.41 0 .73-.33.73-.73 0-.4-.33-.73-.73-.73H17.74zM17.33 24.93v4.34c0 .27.22.49.49.49h19.33c.27 0 .49-.22.49-.49v-4.34c0-.27-.22-.49-.49-.49H17.82C17.54 24.44 17.33 24.66 17.33 24.93z"></path><rect width="3.76" height="17" x="45.34" y="30.19" fill="#ecb521"></rect><polygon fill="#fff" points="47.22 52.19 49.09 48.03 45.34 48.03"></polygon><path fill="#fff" d="M51.48,15.34h-2.12v-1.85c0-0.34-0.28-0.61-0.61-0.61h-3.05c-0.34,0-0.61,0.28-0.61,0.61v15.87h4.28V16.56h1.51v13.02c0,0.34,0.27,0.61,0.61,0.61c0.34,0,0.61-0.27,0.61-0.61V15.95C52.09,15.61,51.81,15.34,51.48,15.34z"></path></svg>