<svg xmlns="http://www.w3.org/2000/svg" data-name="Layer 1" viewBox="0 0 128 128" id="reasonable"><path d="M13 66.5v6h16v-6a3.999 3.999 0 0 0-4-4h-8a3.999 3.999 0 0 0-4 4Z"></path><path d="m127.6 77.98-15.45-47.24a17.077 17.077 0 0 0 5.58-5.37 2.004 2.004 0 0 0-3.45-2.04 13.352 13.352 0 0 1-4.36 4.08 5.104 5.104 0 0 0-2.92-.91 5.168 5.168 0 0 0-4.37 2.42c-3.24-.31-6.77-1.75-10.55-4.34-12.33-8.5-21.42-5.47-26.08-2.53v-4.34a7 7 0 1 0-4 0v4.34c-4.66-2.94-13.75-5.97-26.08 2.53-3.78 2.59-7.31 4.03-10.55 4.34A5.168 5.168 0 0 0 21 26.5a5.104 5.104 0 0 0-2.92.91 13.382 13.382 0 0 1-4.36-4.07 2.001 2.001 0 1 0-3.45 2.03 17.077 17.077 0 0 0 5.58 5.37L.4 77.98a8.13 8.13 0 0 0 1.13 7.26A7.816 7.816 0 0 0 7.9 88.5h26.2a7.784 7.784 0 0 0 6.36-3.26 8.1 8.1 0 0 0 1.13-7.26L26.81 32.77a27.746 27.746 0 0 0 11.38-4.9c13.47-9.28 21.8-2.78 23.81-.85v76.48h-5a3.999 3.999 0 0 0-4 4v4h-1a3.999 3.999 0 0 0-4 4v4a4.243 4.243 0 0 0 .05.5H46a2 2 0 0 0 0 4h36a2 2 0 0 0 0-4h-2.05a4.243 4.243 0 0 0 .05-.5v-4a3.999 3.999 0 0 0-4-4h-1v-4a3.999 3.999 0 0 0-4-4h-5V27.02c2.03-1.94 10.35-8.43 23.81.85a27.942 27.942 0 0 0 11.38 4.92L86.41 77.98a8.1 8.1 0 0 0 1.13 7.26 7.784 7.784 0 0 0 6.36 3.26h26.2a7.816 7.816 0 0 0 6.37-3.26 8.13 8.13 0 0 0 1.13-7.26ZM36.9 76.5H5.09l14.44-44.15c.34.1.67.19 1.02.27a16.357 16.357 0 0 0 2.1.31Zm34.1 31v4H57v-4Zm20.1-31 14.24-43.56a16.53 16.53 0 0 0 2.11-.32c.35-.08.68-.17 1.02-.27l14.44 44.15Z"></path><path d="M99 66.5v6h16v-6a3.999 3.999 0 0 0-4-4h-8a3.999 3.999 0 0 0-4 4Z"></path></svg>